<svg viewBox="0 0 120 120" fill="none" xmlns="http://www.w3.org/2000/svg">
  <rect width="120" height="120" rx="24" fill="black"/>
  <path d="M78 30H70C70 42 62 48 56 50V48C62 46 68 40 68 30H60V62C60 70 52 76 46 74C42 73 38 68 40 64C42 58 50 56 54 60V52C44 50 36 58 36 68C36 80 48 86 56 82C62 78 68 68 68 58V42C72 46 78 48 78 48V30Z" fill="#25F4EE"/>
  <path d="M78 30V36C72 34 68 32 68 30H78Z" fill="#FE2C55"/>
  <path d="M68 30V62C68 68 62 78 56 82C48 86 36 80 36 68C36 60 42 53 50 54L50 60C44 58 42 62 42 66C42 72 48 78 54 76C58 74 60 68 60 62V42L68 30Z" fill="white"/>
</svg>
